<svg width="666" height="205" viewBox="0 0 666 205" fill="none" xmlns="http://www.w3.org/2000/svg">
<path d="M421.526 195V150.045H437.366C443.351 150.045 452.036 153.6 452.036 164.13C452.036 170.565 449.201 173.805 446.951 175.245L453.611 195.045L440.471 195L435.026 177.99V195H421.526ZM436.151 162.645L435.026 162.6V169.125H436.106C438.986 169.17 439.256 162.78 436.151 162.645Z" fill="white" style="fill:white;fill-opacity:1;"/>
<path d="M397.614 195H384.024L395.634 150.045H409.224L420.879 195H407.289L406.344 190.725H398.514L397.614 195ZM402.429 172.5L400.944 179.475H403.959L402.429 172.5Z" fill="white" style="fill:white;fill-opacity:1;"/>
<path d="M372.047 195H354.992V150.045H369.977C380.237 150.045 383.972 154.95 384.062 161.43C384.107 164.805 383.207 169.53 378.887 171.24C384.332 172.5 386.132 177 386.132 181.86C386.132 188.16 382.442 195 372.047 195ZM368.492 177.225V181.5H370.292C371.912 181.5 373.397 181.095 373.352 179.34C373.307 177.675 371.957 177.225 370.337 177.225H368.492ZM370.697 163.545H368.492V165.975H370.652C371.957 165.975 372.272 165.345 372.272 164.805C372.272 164.13 371.822 163.545 370.697 163.545Z" fill="white" style="fill:white;fill-opacity:1;"/>
<path d="M315.09 150.045L328.59 150V181.5H339.21V195H315.09V150.045Z" fill="white" style="fill:white;fill-opacity:1;"/>
<path d="M289.602 150.045L303.102 150V181.5H313.722V195H289.602V150.045Z" fill="white" style="fill:white;fill-opacity:1;"/>
<path d="M274.748 195V150.045H288.248V195H274.748Z" fill="white" style="fill:white;fill-opacity:1;"/>
<path d="M242.932 195V150.045H258.772C264.757 150.045 273.442 153.6 273.442 164.13C273.442 170.565 270.607 173.805 268.357 175.245L275 195H261.877L256.432 177.99V195H242.932ZM257.557 162.645L256.432 162.6V169.125H257.512C260.392 169.17 260.662 162.78 257.557 162.645Z" fill="white" style="fill:white;fill-opacity:1;"/>
<path d="M214.675 172.14C214.675 158.46 222.505 150 238.075 150H241.45V163.5H238.075C230.56 163.5 227.86 166.875 227.86 172.5C227.86 175.65 229.615 178.08 232.405 179.475V172.5H241.45V195H238.075C222.505 195 214.675 185.865 214.675 172.14Z" fill="white" style="fill:white;fill-opacity:1;"/>
<path fill-rule="evenodd" clip-rule="evenodd" d="M400 132H445V105H457V132H502V61C502 23 483 10 451 10C419 10 400 23 400 61V132ZM457 71V55C457 51.6863 454.314 49 451 49C447.686 49 445 51.6863 445 55V71H457Z" fill="white" style="fill:white;fill-opacity:1;"/>
<path d="M161 12H116V83C116 121 135 134 167 134C199 134 218 121 218 83V12H173V82C173 85.3137 170.314 88 167 88C163.686 88 161 85.3137 161 82V12Z" fill="white" style="fill:white;fill-opacity:1;"/>
<path d="M270 12H224V132H305V88H270V12Z" fill="white" style="fill:white;fill-opacity:1;"/>
<path d="M311 12H357V88H394V132H311V12Z" fill="white" style="fill:white;fill-opacity:1;"/>
<path d="M92.9998 132C38 132 10 111 10 72C10 33 38 12 92.9998 12H110V56H67C47 56 47 84 67 84H74L64 72V66H110V132H92.9998Z" fill="white" style="fill:white;fill-opacity:1;"/>
<path d="M571 12L580 62H584L593 12H656V132H616V82H612L602 132H562L552 82H548V132H508V12H571Z" fill="white" style="fill:white;fill-opacity:1;"/>
</svg>
